<svg width="68" height="73" viewBox="0 0 68 73" fill="none" xmlns="http://www.w3.org/2000/svg">
<g id="Frame">
<path id="Vector" fill-rule="evenodd" clip-rule="evenodd" d="M13.028 22.6861C14.1115 22.4243 15.219 22.2925 16.3299 22.2931C25.1274 22.2931 32.2571 30.4411 32.2571 40.4881C32.2571 50.5381 25.1274 58.6861 16.3299 58.6861C7.5324 58.6861 0.399902 50.5411 0.399902 40.4881C0.399902 40.1941 0.405527 39.8971 0.41959 39.6031H0.399902C0.399902 24.4381 11.1999 12.0991 24.4749 12.0991V18.2071C20.169 18.2071 16.1977 19.8811 13.028 22.6861ZM48.6737 22.6861C49.7368 22.4281 50.8393 22.2931 51.9699 22.2931C60.7674 22.2931 67.8999 30.4411 67.8999 40.4881C67.8999 50.5381 60.7674 58.6861 51.9699 58.6861C43.1724 58.6861 36.0427 50.5411 36.0427 40.4881C36.0427 40.1941 36.0483 39.8971 36.0624 39.6031H36.0427C36.0427 24.4381 46.8427 12.0991 60.1177 12.0991V18.2071C55.809 18.2071 51.8433 19.8811 48.6737 22.6861Z" fill="#004391"/>
</g>
</svg>
